<svg xmlns="http://www.w3.org/2000/svg" xmlns:xlink="http://www.w3.org/1999/xlink" width="146.514" height="37.989" viewBox="0 0 146.514 37.989"><defs><style>.a,.f,.g,.h{stroke:#fcd109;}.a,.b,.c,.d,.e,.f,.g,.h,.i,.j,.k{stroke-width:0.094px;}.a{fill:url(#a);}.b{fill:#f8f3b5;stroke:#f8f3b5;}.c{fill:#f7b402;stroke:#f7b402;}.d{fill:#bda727;stroke:#bda727;}.e{fill:#f7e62d;stroke:#f7e62d;}.f{fill:url(#b);}.g{fill:url(#c);}.h{fill:url(#d);}.i{fill:#0d69b3;stroke:#0d69b3;}.j,.n{fill:#107bd4;stroke:#107bd4;}.k{fill:#fff;stroke:#fff;}.l{clip-path:url(#e);}.m{fill:none;stroke:#d1d1d1;stroke-width:2px;}.n{stroke-width:0.101px;}</style><linearGradient id="a" x1="0.5" y1="0.635" x2="0.5" y2="-0.365" gradientUnits="objectBoundingBox"><stop offset="0" stop-color="#f7e830"/><stop offset="1" stop-color="#fdcb06"/></linearGradient><radialGradient id="b" cx="-4.829" cy="-41.246" r="4.378" gradientTransform="matrix(0.154, 0, 0, -1, -3.453, -70.087)" gradientUnits="objectBoundingBox"><stop offset="0.596" stop-color="#f29405"/><stop offset="0.736" stop-color="#f7d01e"/><stop offset="1" stop-color="#fdcb06"/></radialGradient><linearGradient id="c" x1="0.491" y1="11.655" x2="0.499" y2="10.674" gradientUnits="objectBoundingBox"><stop offset="0" stop-color="#fada1c"/><stop offset="1" stop-color="#fdcb06"/></linearGradient><linearGradient id="d" x1="101.001" y1="11.748" x2="101.009" y2="10.768" xlink:href="#c"/><clipPath id="e"><path d="M258.522,188.627a.684.684,0,0,1-.058-.322l-.052.006a.733.733,0,0,0-.625-.567c-.232-.019-.522-.013-.658.206-.258.348-.136.793-.148,1.186,0,.026.007.071.007.1a4.506,4.506,0,0,1-.077.78.554.554,0,0,0-.058.251,5.945,5.945,0,0,1-.625,1.754.651.651,0,0,0-.122.251,8.711,8.711,0,0,1-.664.954.827.827,0,0,0-.1.11,6.3,6.3,0,0,1-.535.561c-.045.026-.077.058-.116.084a4.2,4.2,0,0,1-.729.574c-.032.019-.064.045-.1.071a10.367,10.367,0,0,1-5.609,1.56,10.477,10.477,0,0,1-4.823-1.019c-.026-.013-.09-.039-.116-.052a6.448,6.448,0,0,1-.741-.419c-.052-.026-.1-.058-.161-.084a4.929,4.929,0,0,1-.677-.477c-.071-.064-.148-.116-.226-.174a5.464,5.464,0,0,1-.67-.613c-.052-.058-.1-.11-.155-.161a6.427,6.427,0,0,1-1.541-2.585,7.964,7.964,0,0,1-.271-2.411.864.864,0,0,0-1.109-.335c-.161.116-.181.329-.3.477a7.573,7.573,0,0,0,2.16,5.783.1.1,0,0,0,.071.1c.258.239.509.484.767.716a1.026,1.026,0,0,0,.155.129c.258.213.535.406.806.606a1.372,1.372,0,0,0,.161.1,7.251,7.251,0,0,0,1.07.593.841.841,0,0,0,.1.064,11.626,11.626,0,0,0,3.9,1.115,2.084,2.084,0,0,1,.445.045c.645.039,1.29.019,1.934.006a11.6,11.6,0,0,0,5.713-1.831l.019.026c.052-.045.1-.084.148-.122.264-.193.522-.4.78-.613a1.957,1.957,0,0,0,.181-.155,8.507,8.507,0,0,0,.851-.948l.039.019c.019-.032.052-.1.071-.129.219-.3.419-.606.613-.916.013-.019.045-.052.058-.071l-.026-.026c.019-.026.064-.077.084-.1a7.563,7.563,0,0,0,.78-2.276.111.111,0,0,0,.071-.1,6.066,6.066,0,0,0,.071-.761A4.393,4.393,0,0,0,258.522,188.627Z" transform="translate(-237.424 -187.737)"/></clipPath></defs><g transform="translate(1925.468 90.69)"><path class="a" d="M90.55,166.793c-.019-.064-.039-.129-.064-.193q-22.911.01-45.81.006a.266.266,0,0,0-.071.148q0,17.766-.007,35.526a2.874,2.874,0,0,0,.909,1.638c.019.006.064.013.084.019a2.242,2.242,0,0,0,.9.49c.239-.013.471.09.709.064H66.159a1.532,1.532,0,0,0,.541-.045c.007-.026.013-.071.019-.1s.013-.1.019-.142c.406-2.269.8-4.546,1.232-6.815l.039-.29c-1.754-.007-3.514,0-5.268-.007-.426-.013-.864,0-1.29-.052-.729-.032-1.464-.006-2.192-.077-.9,0-1.8-.084-2.7-.084-.709-.071-1.425-.045-2.141-.077-.464-.058-.941-.032-1.412-.052-.767-.084-1.547-.026-2.315-.11-.812.007-1.625-.064-2.437-.084a.092.092,0,0,0,.013-.039c.271.006.535-.013.806-.019.6-.077,1.206-.026,1.805-.11.625,0,1.244-.084,1.87-.084.554-.077,1.115-.032,1.67-.11.651,0,1.29-.084,1.941-.09.535-.071,1.077-.032,1.612-.1.625.006,1.244-.09,1.87-.084.613-.071,1.238-.052,1.85-.116-.058-.238-.1-.477-.155-.716-.045-.148-.226-.116-.342-.135q-2.1-.3-4.184-.593c.09-.071.213-.039.316-.052,1.083-.084,2.16-.181,3.243-.258.245-.013.484-.058.729-.064a8.425,8.425,0,0,0-.322-1.012c-2.315-.355-4.629-.671-6.938-1.051.6-.1,1.206-.142,1.805-.206l.052-.019c1.915-.2,3.836-.426,5.751-.613,2.431-.013,4.855-.007,7.286,0,.077-.013.213.026.226-.084.2-1.044.393-2.089.593-3.134a15.644,15.644,0,0,1,1.393-4.2,12.4,12.4,0,0,1,4.8-5.132,13.823,13.823,0,0,1,6.338-1.767,9.957,9.957,0,0,1,2.147.045,3,3,0,0,1,1.309.554,2.195,2.195,0,0,1,.619.967,15.392,15.392,0,0,1,.606,2.643,2.043,2.043,0,0,1-.123,1.1,1.386,1.386,0,0,1-.883.574c-1.244.322-2.547.019-3.791.322a4.613,4.613,0,0,0-2.631,1.605,7.479,7.479,0,0,0-1.4,3.327c-.174,1.057-.393,2.115-.567,3.179,1.225.007,2.457-.006,3.688.007a1.3,1.3,0,0,1,1.193.735,3.545,3.545,0,0,1,.116,1.889,6.876,6.876,0,0,1-.587,2.044,2.308,2.308,0,0,1-1.3,1.244,2.6,2.6,0,0,1-.974.1c-1.083,0-2.167.013-3.25,0-.174.793-.29,1.605-.445,2.411-.284,1.567-.561,3.14-.845,4.713-.006.052-.013.161-.013.219.509.026,1.019,0,1.528.013,3.778,0,7.563-.007,11.348,0a2.259,2.259,0,0,0,1.173-.284c.213-.077.342-.264.529-.367s.232-.316.387-.451a2.149,2.149,0,0,0,.355-.954.579.579,0,0,0,.1-.013C90.543,190.52,90.563,178.657,90.55,166.793Z" transform="translate(-1869.583 -257.243)"/><path class="b" d="M50.5,47.158a6.994,6.994,0,0,1,1.683-.1q15.793.01,31.587,0a5.315,5.315,0,0,1,1.754.509c.464.187.948.335,1.412.535a.767.767,0,0,1,.238.193c-.006.851,0,1.709,0,2.566a2.173,2.173,0,0,0,.045.677c.136.019.206.123.3.206a8.734,8.734,0,0,1,1.173.767c.58.413,1.2.774,1.767,1.2a1.075,1.075,0,0,1-.045.5,2.685,2.685,0,0,0-.039.554q-22.911.01-45.81.006a2.243,2.243,0,0,0-.064-.625c-.013-.168-.071-.387.09-.5.645-.451,1.328-.858,1.96-1.335.393-.251.774-.509,1.154-.767a.82.82,0,0,0,.052-.432c0-.935,0-1.87.006-2.8.219-.284.6-.316.9-.458.613-.232,1.232-.458,1.838-.69m.039.11c-.825.316-1.657.619-2.482.935-.11.019-.168.116-.226.2.006.052.013.142.013.193-.007.774,0,1.547-.007,2.321a1.618,1.618,0,0,0,.052.561,1.6,1.6,0,0,1-.277.232c-.935.606-1.838,1.264-2.772,1.863-.161.1-.342.226-.29.438-.032.116.026.213.148.181,2.025-.013,4.043.013,6.067-.019,3.011,0,6.016.006,9.027,0l.045-.019a1.755,1.755,0,0,0,.413.019q8.182,0,16.37,0c1.715.006,3.437,0,5.158,0,2.837,0,5.68.026,8.517.013.084-.019.11-.077.077-.181-.007-.1.032-.245-.077-.309-.451-.213-.838-.542-1.27-.8-.155-.129-.355-.2-.471-.374-.445-.251-.858-.561-1.3-.838a1.314,1.314,0,0,1-.219-.206,1.571,1.571,0,0,0,.052-.426c-.006-.819,0-1.638-.006-2.457a.356.356,0,0,0-.1-.361c-.774-.277-1.541-.574-2.308-.858a2.637,2.637,0,0,0-.761-.219H50.958a2.515,2.515,0,0,0-.419.11Z" transform="translate(-1869.469 -128.824)"/><path class="c" d="M96.6,70.9c.567.239,1.173.374,1.747.606.309.123.406.458.542.729a2.685,2.685,0,0,1-.458.348c-.593.4-1.2.787-1.786,1.2a1.618,1.618,0,0,1-.052-.561C96.6,72.447,96.6,71.674,96.6,70.9Zm37.492.606c.574-.226,1.173-.38,1.747-.606.006.819,0,1.638.006,2.457a1.571,1.571,0,0,1-.052.426c-.5-.348-1.012-.677-1.515-1.019a5.941,5.941,0,0,1-.735-.535C133.685,71.957,133.788,71.629,134.1,71.506Z" transform="translate(-1918.23 -151.128)"/><path class="d" d="M235.462,83.992a1.215,1.215,0,0,1,1.444,1.206,1.228,1.228,0,0,1-1.464,1.154,1.4,1.4,0,0,1-.729-.5,1.21,1.21,0,0,1-.1-1.173A1.153,1.153,0,0,1,235.462,83.992Zm18.395.406a1.239,1.239,0,0,1,1.206-.4,1.206,1.206,0,0,1,.3,2.224,1.245,1.245,0,0,1-1.483-.251A1.227,1.227,0,0,1,253.857,84.4Z" transform="translate(-2047.249 -163.349)"/><path class="e" d="M50.6,91.855a2.685,2.685,0,0,0,.458-.348l.045.045c.045.335.013.677.026,1.012-.019,1.006.019,2.018-.026,3.024-1.876,0-3.752-.013-5.629,0-.052-.213.129-.342.29-.438.935-.6,1.838-1.257,2.772-1.863a1.6,1.6,0,0,0,.277-.232C49.4,92.641,50,92.254,50.6,91.855Zm35.049-.129a.4.4,0,0,1,.064-.226,5.949,5.949,0,0,0,.735.535c.5.342,1.012.671,1.515,1.019a1.324,1.324,0,0,0,.219.206c.438.277.851.587,1.3.838.116.174.316.245.471.374.432.258.819.587,1.27.8.11.064.071.206.077.309-1.876.006-3.746-.006-5.622.006a7.667,7.667,0,0,1-.019-.767c0-1.032-.013-2.063-.006-3.095Z" transform="translate(-1870.39 -170.4)"/><path class="f" d="M91.292,55.447c-1.876.006-3.746-.006-5.622.006a7.667,7.667,0,0,1-.019-.767c0-1.032-.013-2.063-.007-3.095a.4.4,0,0,1,.064-.226c.136-.271.239-.6.548-.722.574-.226,1.173-.38,1.747-.606a.356.356,0,0,0-.1-.361c-.774-.277-1.541-.574-2.308-.858a2.637,2.637,0,0,0-.761-.219H51.878a2.512,2.512,0,0,0-.419.11c-.825.316-1.657.619-2.482.935-.11.019-.168.116-.226.2.006.052.013.142.013.193.567.239,1.173.374,1.747.606.309.123.406.458.542.729l.045.045c.045.335.013.677.026,1.012-.019,1.006.019,2.018-.026,3.024-1.876,0-3.752-.013-5.629,0-.032.116.026.213.148.181,2.025-.013,4.043.013,6.067-.019,3.011,0,6.016.006,9.027,0l.045-.019a1.755,1.755,0,0,0,.413.019q8.182,0,16.37,0c1.715.006,3.437,0,5.158,0,2.837,0,5.68.026,8.517.013C91.3,55.609,91.324,55.55,91.292,55.447ZM57.758,51.6a1.153,1.153,0,0,1,.845-.69,1.215,1.215,0,0,1,1.444,1.206,1.228,1.228,0,0,1-1.464,1.154,1.4,1.4,0,0,1-.729-.5,1.211,1.211,0,0,1-.1-1.173ZM77,51.314a1.239,1.239,0,0,1,1.206-.4,1.206,1.206,0,0,1,.3,2.224,1.245,1.245,0,0,1-1.483-.251A1.227,1.227,0,0,1,77,51.314Z" transform="translate(-1870.389 -130.266)"/><path class="g" d="M554.653,188.524c.09.019-.47-.538-.36-.564a1.2,1.2,0,0,1,.967-.043c.473.248.355.827.3,1.042a1.166,1.166,0,0,1-.356.548.622.622,0,0,1-.327.142c.058-.316-.129-.368-.142-.69Z" transform="translate(-2346.401 -265.788)"/><path class="h" d="M227.688,187.626c-.013.322-.2.374-.142.69a.622.622,0,0,1-.327-.142,1.167,1.167,0,0,1-.356-.548c-.054-.215-.171-.795.3-1.042a1.2,1.2,0,0,1,.967.043c.11.026-.45.583-.36.564Z" transform="translate(-2040.047 -264.491)"/><path class="d" d="M281.779,261.584a.356.356,0,0,1,.29-.084,15.024,15.024,0,0,1-3.034,4.658,4.547,4.547,0,0,1-.459.36c-.155.114-.308.22-.459.329s-.3.207-.439.315a6.033,6.033,0,0,1-1.1.6,10.3,10.3,0,0,1-2.347.761,6.881,6.881,0,0,1-.961.135,5.613,5.613,0,0,1-1.232.058c-.226.039-.426-.09-.645-.064q-.285-.04-.569-.1t-.57-.135c-2.956-.922-5.857-3.179-6.7-6.231a3.426,3.426,0,0,1-.057-.623q.135.271.281.537a9.455,9.455,0,0,0,6.406,5.307c.229.1.476.068.7.158a1.8,1.8,0,0,1,.587.058c.664.013,1.328.006,1.992.006a.976.976,0,0,0,.264-.058,8.492,8.492,0,0,0,3.2-.8q.3-.137.6-.293.257-.135.5-.293t.465-.329a10.68,10.68,0,0,0,2.926-3.579C281.549,262.03,281.671,261.8,281.779,261.584Z" transform="translate(-2074.371 -338.612)"/><path class="i" d="M239.1,325.516a13.823,13.823,0,0,1,6.338-1.767,9.958,9.958,0,0,1,2.147.045,3,3,0,0,1,1.309.554,2.78,2.78,0,0,1-.555-.1,9.614,9.614,0,0,0-1.612-.077,16.932,16.932,0,0,0-4.623.548,10.854,10.854,0,0,0-2.289.928,11.424,11.424,0,0,0-3.256,2.669,13.973,13.973,0,0,0-3.017,6.589c-.219,1.283-.471,2.559-.671,3.849-.322.032-.651.013-.974.013q-2.128-.01-4.255-.026c-.3.013-.6-.058-.9-.039-2.579.013-5.158-.006-7.737-.006l.052-.019c1.915-.2,3.836-.426,5.751-.613,2.431-.013,4.855-.007,7.286,0,.077-.013.213.026.226-.084.2-1.044.393-2.089.593-3.134a15.649,15.649,0,0,1,1.393-4.2A12.4,12.4,0,0,1,239.1,325.516Z" transform="translate(-2032.74 -402.513)"/><path class="j" d="M132,331.448a16.933,16.933,0,0,1,4.623-.548,9.608,9.608,0,0,1,1.612.077,2.774,2.774,0,0,0,.555.1,2.2,2.2,0,0,1,.619.967,15.391,15.391,0,0,1,.606,2.643,2.043,2.043,0,0,1-.122,1.1,1.387,1.387,0,0,1-.883.574c-1.244.322-2.547.019-3.791.322a4.613,4.613,0,0,0-2.631,1.605,7.479,7.479,0,0,0-1.4,3.327c-.174,1.057-.393,2.115-.567,3.179a5.731,5.731,0,0,0-.168.748c1.218.019,2.437,0,3.656.013.464-.013.928.013,1.393-.019a3.545,3.545,0,0,1,.116,1.889,6.876,6.876,0,0,1-.587,2.044,2.308,2.308,0,0,1-1.3,1.244,2.6,2.6,0,0,1-.974.1c-1.083,0-2.167.013-3.25,0-.174.793-.29,1.605-.445,2.411-.284,1.567-.561,3.14-.845,4.713-.006.052-.013.161-.013.219v.006c-2.818,0-5.629.007-8.446,0,.007-.026.013-.071.019-.1s.013-.1.019-.142c.007.052.013.148.019.193.174.019.49.11.535-.142.438-2.373.845-4.758,1.3-7.131a1.359,1.359,0,0,0-.535-.006c-.026.09-.052.18-.084.271l.039-.29c-1.754-.007-3.514,0-5.268-.007-.426-.013-.864,0-1.29-.052-.729-.032-1.464-.006-2.192-.077-.9,0-1.8-.084-2.7-.084-.709-.071-1.425-.045-2.141-.077-.464-.058-.941-.032-1.412-.052-.767-.084-1.547-.026-2.315-.11-.812.007-1.625-.064-2.437-.084a.091.091,0,0,0,.013-.039c.271.006.535-.013.806-.019.6-.077,1.206-.026,1.805-.11.625,0,1.244-.084,1.87-.084.554-.077,1.115-.032,1.67-.11.651,0,1.29-.084,1.941-.09.535-.071,1.077-.032,1.612-.1.625.006,1.244-.09,1.87-.084.613-.071,1.238-.052,1.85-.116-.058-.238-.1-.477-.155-.716-.045-.148-.226-.116-.342-.135q-2.1-.3-4.184-.593c.09-.071.213-.039.316-.052,1.083-.084,2.16-.181,3.243-.258.245-.013.484-.058.729-.064a8.425,8.425,0,0,0-.322-1.012c-2.315-.355-4.629-.671-6.938-1.051.6-.1,1.206-.142,1.805-.206,2.579,0,5.158.019,7.737.006.3-.019.6.052.9.039q2.128.019,4.255.026c.322,0,.651.019.974-.013.2-1.29.451-2.566.671-3.849a13.972,13.972,0,0,1,3.017-6.589,11.423,11.423,0,0,1,3.256-2.669A10.852,10.852,0,0,1,132,331.448Z" transform="translate(-1922.634 -416.224)"/><path class="i" d="M398.826,546.3c1.225.007,2.457-.006,3.688.007a1.3,1.3,0,0,1,1.193.735c-.464.032-.928.007-1.393.019-1.219-.013-2.437.007-3.656-.013A5.7,5.7,0,0,1,398.826,546.3Zm-9.51,6.041a1.358,1.358,0,0,1,.535.006c-.451,2.373-.858,4.758-1.3,7.131-.045.251-.361.161-.535.142-.007-.045-.013-.142-.019-.193.406-2.269.8-4.546,1.232-6.815C389.264,552.521,389.29,552.431,389.315,552.34Z" transform="translate(-2190.844 -621.34)"/><path class="k" d="M258.522,188.627a.684.684,0,0,1-.058-.322l-.052.006a.733.733,0,0,0-.625-.567c-.232-.019-.522-.013-.658.206-.258.348-.136.793-.148,1.186,0,.026.007.071.007.1a4.506,4.506,0,0,1-.077.78.554.554,0,0,0-.058.251,5.945,5.945,0,0,1-.625,1.754.651.651,0,0,0-.122.251,8.711,8.711,0,0,1-.664.954.827.827,0,0,0-.1.11,6.3,6.3,0,0,1-.535.561c-.045.026-.077.058-.116.084a4.2,4.2,0,0,1-.729.574c-.032.019-.064.045-.1.071a10.367,10.367,0,0,1-5.609,1.56,10.477,10.477,0,0,1-4.823-1.019c-.026-.013-.09-.039-.116-.052a6.448,6.448,0,0,1-.741-.419c-.052-.026-.1-.058-.161-.084a4.929,4.929,0,0,1-.677-.477c-.071-.064-.148-.116-.226-.174a5.464,5.464,0,0,1-.67-.613c-.052-.058-.1-.11-.155-.161a6.427,6.427,0,0,1-1.541-2.585,7.964,7.964,0,0,1-.271-2.411.864.864,0,0,0-1.109-.335c-.161.116-.181.329-.3.477a7.573,7.573,0,0,0,2.16,5.783.1.1,0,0,0,.071.1c.258.239.509.484.767.716a1.026,1.026,0,0,0,.155.129c.258.213.535.406.806.606a1.372,1.372,0,0,0,.161.1,7.251,7.251,0,0,0,1.07.593.841.841,0,0,0,.1.064,11.626,11.626,0,0,0,3.9,1.115,2.084,2.084,0,0,1,.445.045c.645.039,1.29.019,1.934.006a11.6,11.6,0,0,0,5.713-1.831l.019.026c.052-.045.1-.084.148-.122.264-.193.522-.4.78-.613a1.957,1.957,0,0,0,.181-.155,8.507,8.507,0,0,0,.851-.948l.039.019c.019-.032.052-.1.071-.129.219-.3.419-.606.613-.916.013-.019.045-.052.058-.071l-.026-.026c.019-.026.064-.077.084-.1a7.563,7.563,0,0,0,.78-2.276.111.111,0,0,0,.071-.1,6.066,6.066,0,0,0,.071-.761A4.393,4.393,0,0,0,258.522,188.627Z" transform="translate(-2049.976 -266.896)"/><g class="l" transform="translate(-1812.552 -79.159)"><path class="m" d="M230.167,187.566c.523.164,1.723-.249,2.063.129m-1.762,1.461c.5-.174,1.575-.587,2.02-.344m-1.5,1.934c.242.078.719-.347.956-.472a3.521,3.521,0,0,1,1.107-.388m-1.29,2.536a3.645,3.645,0,0,1,.909-.9c.358-.25,1.336-.917,1.756-.689m-1.934,2.794c.283-.225.4-.624.7-.861a6.075,6.075,0,0,1,1.281-.515m-.763,2.267c.085-.623.718-1.376,1.322-1.322m-.387,2.192c.319-.032.589-.746.8-.988a2.055,2.055,0,0,1,1.086-.6m-.043,2.364c-.021-.451.445-1.744.989-1.676m.387,2.106c-.023-.533.253-2.137.9-2.192m.516,3.052a2.764,2.764,0,0,1,.473-2.364m1.29,2.536c-.066-.621-.683-1.878,0-2.364m1.891,1.934a3.579,3.579,0,0,1-.344-2.063m2.149,1.762a4.284,4.284,0,0,1-.6-1.28c-.051-.286.039-.694-.007-.912m2.106,1.547a2.248,2.248,0,0,1-.473-2.02M247.7,195.6a5.013,5.013,0,0,1-.731-2.192m2.149.817c-.545-.367-1.241-1.033-1.161-1.762m2.665.6a4.628,4.628,0,0,1-2.321-1.59m3.009.172c-.6-.128-2.571-.9-2.45-1.676m3.095.172a9.109,9.109,0,0,1-2.708-1.161m3.138-.215a8.411,8.411,0,0,1-1.808-.3c-.592-.1-1.14-.3-1.716-.43m3.009-.6a7.517,7.517,0,0,1-2.88-.6" transform="translate(-230.635 -186.893)"/></g><g transform="translate(-1925.412 -86.711)"><path class="n" d="M-1894.123,242.736a3.758,3.758,0,0,1,2.8.353,1.9,1.9,0,0,1,.635,1.639,2.852,2.852,0,0,1-1.3,2.556,4.444,4.444,0,0,1-2.574.37,1.946,1.946,0,0,1-1.463-.917A2.922,2.922,0,0,1-1894.123,242.736Zm-27.959,1.111a1.1,1.1,0,0,1,1.075-.987c4.072,0,8.127.018,12.181,0a1.18,1.18,0,0,1,1.128.546c.3.529.035,1.111,0,1.657-.123.74-.088,1.728-.952,2.01-2.962.088-5.923,0-8.885.035-.282,1.868-.547,3.719-.829,5.57,0,.071.018.229.018.3,2.168-.018,4.337,0,6.5-.018a1.113,1.113,0,0,1,1.181,1.111c-.053.652-.194,1.287-.282,1.939a1.148,1.148,0,0,1-.882.934c-2.415.053-4.865-.053-7.28.053-.388,2.662-.846,5.324-1.252,7.986a1.1,1.1,0,0,1-1,1q-1.507.027-3.014,0a1.076,1.076,0,0,1-1-1.322Q-1923.765,254.247-1922.082,243.847Zm17.91-.952c.917-.07,1.851-.018,2.768-.035a1.136,1.136,0,0,1,1.181.987,12.257,12.257,0,0,1-.176,1.375c-.74,4.724-1.5,9.449-2.239,14.173a5.53,5.53,0,0,0-.07,2.345c.264.776,1.445.441,1.728,1.251a5.948,5.948,0,0,1-.071,2.01c-.053.881-1.058,1.075-1.745,1.269a4.663,4.663,0,0,1-4.39-1.164,4.1,4.1,0,0,1-.67-3.3q1.4-8.99,2.821-18A1.066,1.066,0,0,1-1904.171,242.895Zm34.992.952a1.114,1.114,0,0,1,1.058-.987h2.68a1.119,1.119,0,0,1,1.058,1.34c-.617,3.914-1.252,7.827-1.869,11.74a4.134,4.134,0,0,0,2.644-1.075,16.39,16.39,0,0,0,2.662-4.16c.229-.582.353-1.428,1.111-1.534,1-.035,2.027-.018,3.032,0a1.064,1.064,0,0,1,.969,1.393A12.532,12.532,0,0,1-1857,253.19a19.913,19.913,0,0,1-3.631,4.6c.652,1.957,1.481,3.861,2.2,5.782.211.635.723,1.375.247,1.992-.547.74-1.569.37-2.327.458-.793-.088-1.939.317-2.38-.582-.828-1.922-1.516-3.9-2.362-5.817a10.66,10.66,0,0,1-1.5-.018l-.141.282c-.265,1.763-.546,3.526-.828,5.288a1.049,1.049,0,0,1-.9.829c-.934.035-1.886.017-2.838.017a1.1,1.1,0,0,1-.952-.617,1.946,1.946,0,0,1-.017-1.146Q-1870.783,254.053-1869.179,243.847Zm48.989,1.922a1.1,1.1,0,0,1,1.093-.811c.705.018,1.428-.018,2.151.018a1.058,1.058,0,0,1,.969,1.163c-.106,1-.353,2.01-.423,3.014.688,0,1.393-.018,2.08,0a1.088,1.088,0,0,1,1.022,1.234c-.088.547-.212,1.076-.3,1.622a1.147,1.147,0,0,1-.917.9c-.846.053-1.675-.035-2.5.053-.353,2.362-.74,4.724-1.111,7.087a2.5,2.5,0,0,0,.229,1.639c.476.582,1.3.37,1.974.441a1.16,1.16,0,0,1,.775,1.269c-.088.6-.106,1.2-.247,1.78-.212.652-.97.776-1.551.934a6.127,6.127,0,0,1-4.883-.511c-1.322-.9-1.534-2.644-1.393-4.125.37-2.856.952-5.694,1.269-8.567-.494.018-1.093.088-1.463-.353-.423-.441-.212-1.093-.141-1.64.106-.582.088-1.34.723-1.657a7.19,7.19,0,0,1,1.64-.123C-1820.86,248.007-1820.542,246.879-1820.19,245.768Zm-9.96,5.711a9.6,9.6,0,0,1,3.984-2.485,1.118,1.118,0,0,1,1.516,1c-.123.97-.353,1.921-.511,2.873a1.122,1.122,0,0,1-.952.934,8.335,8.335,0,0,0-4.425,2.574c-.3.37-.74.723-.793,1.234-.37,2.468-.758,4.936-1.146,7.4a1.088,1.088,0,0,1-1.058,1h-2.68a1.1,1.1,0,0,1-1.093-1.2c.776-4.883,1.552-9.748,2.309-14.632a1.075,1.075,0,0,1,.9-1.022c.652-.035,1.3-.018,1.975-.018a1.059,1.059,0,0,1,1.022,1.023c0,.758-.07,1.534-.088,2.309A8.01,8.01,0,0,0-1830.15,251.48Zm-65.9-2.239a19.839,19.839,0,0,1,2.891-.088,1.084,1.084,0,0,1,1.216.829,5.656,5.656,0,0,1-.123,1.446q-1.084,6.8-2.151,13.591a1.082,1.082,0,0,1-1.022,1c-.952,0-1.9.018-2.873-.017a1.109,1.109,0,0,1-.881-1.34c.758-4.707,1.481-9.4,2.239-14.1A1.406,1.406,0,0,1-1896.045,249.241Zm57.045.229a28.183,28.183,0,0,0-7.968-.582,9.165,9.165,0,0,0-6.24,3.332,12.231,12.231,0,0,0-2.257,9.237,6.248,6.248,0,0,0,2.168,4.037,5.352,5.352,0,0,0,4.143.793,9.97,9.97,0,0,0,5.024-3.067c.07.6-.071,1.2-.035,1.78a1.093,1.093,0,0,0,1.075,1.022h1.8a1.08,1.08,0,0,0,1-1q1.137-7.166,2.256-14.3A1.113,1.113,0,0,0-1839,249.47Zm-4.953,8.3a13.594,13.594,0,0,1-2.8,3.543,2.9,2.9,0,0,1-2.309.9c-.846-.176-1.252-1.058-1.446-1.816a7.753,7.753,0,0,1,1.075-5.835,3.769,3.769,0,0,1,2.2-1.64,7.687,7.687,0,0,1,3.9.194l.07.071C-1843.424,254.723-1843.724,256.239-1843.953,257.773Zm-29.651-2.644a7.291,7.291,0,0,0-1.728-4.936,4.461,4.461,0,0,0-3.349-1.393,8.009,8.009,0,0,0-5.465,2.274c-.335.265-.564.652-.934.864,0-.582.053-1.164.035-1.763a1.046,1.046,0,0,0-1.022-1.023h-1.8a1.107,1.107,0,0,0-1.058,1.04q-1.666,10.577-3.349,21.154a1.094,1.094,0,0,0,1.075,1.3,23.615,23.615,0,0,0,2.961-.071c.776-.212.758-1.111.882-1.763.282-1.551.476-3.1.652-4.672,3.473.67,7.51.212,10.1-2.415a12.171,12.171,0,0,0,3-8.6Zm-4.936,1.78a7.1,7.1,0,0,1-1.816,4.442c-1.463,1.393-3.684,1.2-5.483.723a1.206,1.206,0,0,1-.106-.212c.282-1.534.423-3.085.776-4.6a10.792,10.792,0,0,1,3.9-4.16,1.635,1.635,0,0,1,1.957.353A4.957,4.957,0,0,1-1878.54,256.909Z" transform="translate(1925.412 -242.632)"/></g></g></svg>